<svg xmlns="http://www.w3.org/2000/svg" viewBox="0 0 1792 512"><path d="M107.6 331.4A187.6 187.6 0 0 1 232.4 68l-21.8 46a151.6 151.6 0 0 0-81 171.3l-22 46.1zm283.8 67.5a187 187 0 0 1-229 0l39.6-16.7c22.1 12.6 47.6 19.7 74.9 19.7 27.2 0 52.7-7.1 74.8-19.7l39.7 16.7zM321.4 68a187.7 187.7 0 0 1 124.8 263.4l-21.9-46a151.6 151.6 0 0 0-81-171.4l-22-46z" fill="#164a72"/><path d="M276.9 336.4l89.6 37.8-22.7-47.6-67-28.3-66.9 28.3-22.5 47.6m89.5-352.9L90.3 415.2l48.5-20.5 22.5-47.5 71.1-150 44.5-93.9L339.3 235l53.2 112.2 22.5 47.5 48.5 20.5L276.9 21.3z" fill="#00aeef"/><path d="M321.3 277.2L277 183.3l-44.5 93.9 44.5-18.7z" fill="#00aeef"/><g fill="#164a72"><path d="M701.4 246.5H612L591.2 303h-27.6l82-212.4h23.3l80.7 212.4H722l-20.6-56.6M620 224.7h73.6L657 124.1l-37 100.6" /><path d="M910.3 230c0 23.3-5.4 41.8-16 55.6A54 54 0 0 1 849 306c-10 0-18.6-1.6-26-4.8a49.8 49.8 0 0 1-18.6-14.8l-.4.2v77.1h-27.2V145.3H800l2.6 20a52.7 52.7 0 0 1 19.1-17.1 57.5 57.5 0 0 1 26.9-5.9c19.8 0 35 7.7 45.6 23 10.7 15.1 16 35.7 16 61.6v3m-27-3c0-18.5-3.6-33.5-10.6-44.9a34.9 34.9 0 0 0-31.9-17.2c-8.8 0-16.3 2-22.3 5.8-6 4-10.8 9.3-14.4 16v76.2a43.7 43.7 0 0 0 14.5 15.9c6 3.7 13.5 5.5 22.5 5.5 14.2 0 24.7-4.9 31.6-14.7 7-10 10.5-23 10.5-39.5v-3" /><path d="M1079.4 230c0 23.3-5.3 41.8-16 55.6a54 54 0 0 1-45.2 20.4c-10 0-18.7-1.6-26-4.8a49.8 49.8 0 0 1-18.6-14.8l-.5.2v77.1H946V145.3h23.2l2.6 20a52.7 52.7 0 0 1 19.1-17.1 57.5 57.5 0 0 1 26.9-5.9c19.8 0 35 7.7 45.6 23 10.7 15.1 16 35.7 16 61.6v3m-27-3c0-18.5-3.6-33.5-10.6-44.9a34.9 34.9 0 0 0-32-17.2c-8.8 0-16.2 2-22.2 5.8-6 4-10.8 9.3-14.5 16v76.2a43.7 43.7 0 0 0 14.6 15.9c6 3.7 13.4 5.5 22.5 5.5 14.2 0 24.7-4.9 31.6-14.7 7-10 10.5-23 10.5-39.5v-3" /><path d="M1237.5 246.5h-89.4l-20.8 56.6h-27.6l82-212.4h23.3l80.7 212.4H1258l-20.6-56.6m-81.3-21.8h73.5l-36.5-100.6-37 100.6" /><path d="M1411.8 280l-.4-.1a51.6 51.6 0 0 1-18.8 19.4 53.6 53.6 0 0 1-27.5 6.7c-17.5 0-31-5.4-40.3-16-9.5-10.9-14.2-28.1-14.2-51.8v-93h27.1v93.2c0 17.4 2.6 29.2 7.6 35.6 5 6.4 13 9.5 24 9.5s19.7-2 26.3-6.3a40.3 40.3 0 0 0 15.3-18.5V145.3h27V303h-24.2l-1.9-23" /><path d="M1513.2 106.9v38.4h30.3v20.5h-30.3v96.6c0 7.7 1.3 13.2 4 16.3 2.5 3 6.1 4.5 10.7 4.5a56.4 56.4 0 0 0 13.7-1.9l3.7 19.1a57.5 57.5 0 0 1-24 5.5c-11 0-19.7-3.3-26-10.1-6.1-7-9.2-18-9.2-33.4v-96.6h-22.7v-20.5h22.7v-38.4h27" /><path d="M1602.6 166.7l.4.1a55.3 55.3 0 0 1 46.7-24.5c17.2 0 30.3 5 39.4 15 9.1 9.8 13.7 25.5 13.7 47v98.8h-27v-99c0-13.8-2.8-23.7-8.5-30-5.6-6.2-14.2-9.3-25.8-9.3-8.4 0-16 2-22.6 6-6.6 4-12 9.5-16.3 16.5V303h-27.1V75.5h27v91.2" /></g><g fill="#00aeef"><path d="M1158.1 435.1v-51.9h-9.3v-7.8h9.3v-7.6c0-6.5 1.6-11.4 4.8-14.8 3.3-3.4 7.9-5.1 13.9-5.1a53.2 53.2 0 0 1 8 1.2l-1.3 8a18.1 18.1 0 0 0-5.4-.7c-3.3 0-5.8 1-7.4 3-1.5 1.8-2.3 4.6-2.3 8.4v7.6h12.7v7.8h-12.7v52h-10.3" /><path d="M1189.3 404.7c0-9 2.3-16.4 7-22a24 24 0 0 1 19.6-8.4c8.3 0 14.9 2.8 19.6 8.5a32.7 32.7 0 0 1 7.1 21.9v1.3c0 9-2.3 16.3-7 21.9a24.3 24.3 0 0 1-19.6 8.3c-8.4 0-15-2.8-19.7-8.3-4.7-5.6-7-12.9-7-22v-1.2m10.2 1.3c0 6.5 1.4 11.8 4.1 15.9 2.7 4 6.9 6.1 12.4 6.1 5.4 0 9.5-2 12.3-6.1a28 28 0 0 0 4.1-16v-1.2c0-6.4-1.4-11.7-4.2-15.9a13.9 13.9 0 0 0-12.3-6.2c-5.5 0-9.6 2-12.3 6.2-2.7 4.2-4 9.5-4 15.9v1.3" /><path d="M1284.6 384.6l-6-.3a13 13 0 0 0-7.7 2.2c-2 1.4-3.6 3.5-4.7 6.1v42.5H1256v-59.7h9.1l1 8.7h.2c1.6-3 3.7-5.5 6.2-7.2a15.1 15.1 0 0 1 11.4-2.4l2 .4-1.3 9.7" /><path d="M1369.8 413.7H1336l-8 21.4h-10.3l31-80.3h8.8L1388 435h-10.4l-7.8-21.4m-30.8-8.2h27.8l-13.8-38-14 38" /><path d="M1407.5 375.4l.8 9h.1a20.3 20.3 0 0 1 17.8-10.1c6.6 0 11.5 1.9 15 5.5 3.5 3.7 5.2 9.6 5.2 17.6v37.7H1436v-37.4c0-5.5-1-9.4-3.1-11.6-2-2.2-5.3-3.3-9.8-3.3a15.8 15.8 0 0 0-14.6 9v43.3h-10.3v-59.7h9.2" /><path d="M1459.8 406.3c0-9.8 2-17.5 6-23.3 4-5.8 9.8-8.7 17.3-8.7a19 19 0 0 1 16.4 7.8h.2v-33h10.2v86h-8.8l-1-7.4c-1.9 2.8-4.3 5-7 6.4a22.1 22.1 0 0 1-10 2.1c-7.5 0-13.2-2.6-17.2-7.8-4-5.1-6-12.1-6-21v-1m10.2 1c0 6.3 1.2 11.3 3.7 15 2.5 3.5 6.4 5.3 11.8 5.3a15 15 0 0 0 8.5-2.2c2.3-1.5 4.1-3.7 5.6-6.5v-27.7a15 15 0 0 0-14-8.5c-5.4 0-9.4 2.2-11.9 6.5s-3.7 10-3.7 17v1.2" /><path d="M1555 384.6l-6-.3a13 13 0 0 0-7.7 2.2c-2 1.4-3.6 3.5-4.7 6.1v42.5h-10.3v-59.7h9.2l1 8.7h.2c1.6-3 3.7-5.5 6.2-7.2a15.1 15.1 0 0 1 11.4-2.4l2 .4-1.3 9.7" /><path d="M1562 404.7c0-9 2.4-16.4 7.1-22a24 24 0 0 1 19.5-8.4c8.4 0 15 2.8 19.7 8.5a32.7 32.7 0 0 1 7 21.9v1.3c0 9-2.3 16.3-7 21.9a24.3 24.3 0 0 1-19.6 8.3c-8.3 0-14.9-2.8-19.6-8.3-4.7-5.6-7-12.9-7-22v-1.2m10.2 1.3c0 6.5 1.4 11.8 4 15.9 2.8 4 7 6.1 12.4 6.1 5.5 0 9.6-2 12.3-6.1a28 28 0 0 0 4.2-16v-1.2c0-6.4-1.4-11.7-4.2-15.9a13.9 13.9 0 0 0-12.4-6.2c-5.4 0-9.5 2-12.2 6.2-2.7 4.2-4.1 9.5-4.1 15.9v1.3" /><path d="M1639.8 435.1h-10.2v-59.7h10.2v59.7m0-75.1h-10.2v-11h10.2v11" /><path d="M1654.3 406.3c0-9.8 2-17.5 6-23.3 4-5.8 9.8-8.7 17.3-8.7a19 19 0 0 1 16.4 7.8h.2v-33h10.2v86h-8.9l-.9-7.4c-2 2.8-4.4 5-7.2 6.4a22.1 22.1 0 0 1-10 2.1c-7.3 0-13-2.6-17.1-7.8-4-5.1-6-12.1-6-21v-1m10.2 1c0 6.3 1.2 11.3 3.7 15 2.5 3.5 6.4 5.3 11.8 5.3a15 15 0 0 0 8.6-2.2c2.2-1.5 4-3.7 5.6-6.5v-27.7a15 15 0 0 0-14-8.5c-5.5 0-9.5 2.2-12 6.5s-3.7 10-3.7 17v1.2" /></g></svg>